<svg width="190" height="220" viewBox="0 0 190 220" fill="none" xmlns="http://www.w3.org/2000/svg">
<g clip-path="url(#clip0_1102_1518)">
<path d="M55.5085 19.5461C69.8305 2.28455 87.5424 -2.28468 109.237 0.930705C120.593 2.62301 132.373 5.58455 140.763 13.4538C148.559 20.7307 152.288 31.3076 157.881 40.3615C164.661 51.5307 174.407 60.8384 180.424 72.4307C199.153 108.477 188.136 164.831 166.949 197.323C162.627 204.008 157.373 210.438 150.508 214.5C135.593 223.3 116.864 219.492 99.8305 216.192C81.1017 212.638 62.0339 209.846 42.9661 208.746C27.7119 207.9 14.8305 204.431 6.77966 189.877C0.0847427 177.861 -0.593224 163.477 0.423726 149.769C3.72881 104.331 24.7458 61.5999 51.6102 24.5384C52.8814 22.8461 54.1525 21.1538 55.5085 19.5461Z" fill="#202E55"/>
<path d="M153.305 139.954C156.271 139.361 158.729 138.346 160.593 135.385C159.576 135.215 158.729 134.877 157.881 134.877C156.102 134.961 154.322 135.385 152.542 135.385C151.864 135.385 151.017 134.792 150.678 134.285C150.424 133.861 150.508 132.931 150.847 132.508C151.949 131.154 153.22 130.054 154.322 128.785C154.661 128.361 155.085 127.685 155 127.261C154.83 126.838 154.068 126.415 153.559 126.331C152.797 126.246 151.949 126.5 151.186 126.669C147.966 127.177 144.746 127.769 141.525 128.277C140.763 128.362 140 128.108 140.593 127.092C141.271 125.823 141.949 124.469 142.797 123.285C144.661 120.661 145.847 117.785 146.61 114.738C146.695 114.4 146.525 113.808 146.271 113.554C146.017 113.385 145.424 113.385 145.085 113.469C144.322 113.808 143.644 114.4 142.881 114.823C141.525 115.754 140.339 117.192 138.051 116.515C138.39 115.669 138.644 114.908 138.898 114.061C139.491 112.623 140.424 111.185 140.678 109.662C141.102 107.123 141.525 105.515 139.152 104.161C137.288 105.938 136.186 108.646 133.136 109.577C133.136 108.985 133.051 108.561 133.22 108.308C134.322 105.769 135.593 103.315 136.525 100.692C136.864 99.6769 136.949 97.9846 136.356 97.223C135.424 96.0384 134.152 97.223 133.22 97.9C133.051 98.0692 132.881 98.2384 132.712 98.323C132.034 98.6615 131.356 99 130.339 99.5076C131.525 94.7692 133.814 90.9615 133.898 86.223C130.678 87.4077 129.83 90.7076 127.458 92.823C127.373 92.2307 127.288 91.8076 127.373 91.4692C127.542 89.0153 127.797 86.4769 127.881 84.023C127.881 83.1769 127.458 82.3307 127.119 81.0615C125.763 82.6692 124.83 83.7692 123.559 85.2076C123.559 84.4461 123.559 84.1923 123.559 83.9384C123.729 82.3307 123.983 80.723 123.983 79.1153C123.983 78.6923 123.644 78.0153 123.305 77.9307C123.051 77.8461 122.373 78.1846 122.119 78.523C121.017 79.8769 120.254 79.9615 119.152 78.6077C117.627 76.7461 116.356 74.6307 114.661 72.9384C113.39 71.6692 113.305 70.4846 113.644 68.8769C114.407 64.9846 115 61.0923 115.593 57.2C115.932 55.0846 116.017 52.8846 116.441 50.6846C117.288 46.0307 117.797 41.4615 116.949 36.8077C116.441 34.1846 113.983 32.6615 111.695 33.5076C110.678 33.9307 109.661 34.6077 108.813 35.3692C107.881 36.3846 107.034 37.4846 106.356 38.7538C104.407 42.7307 102.542 46.7923 100.678 50.8538C99.8305 52.7153 99.2372 54.7461 98.3898 57.2C97.4576 56.1 96.6949 55.423 96.4406 54.6615C95.4237 51.8692 94.322 49.0769 93.7288 46.2C92.6271 40.8692 91.8644 35.4538 91.0169 30.0384C90.6779 27.5 90.7627 24.9615 90.2542 22.5077C89.9152 20.8153 89.1525 19.123 88.2203 17.6C87.2881 16.1615 85.1694 16.0769 84.0677 17.4307C83.3898 18.2769 82.6271 19.2076 82.2881 20.1384C81.3559 23.4384 80.4237 26.7384 79.9999 30.123C78.8982 37.4846 79.0677 44.8461 80.3389 52.2076C81.0169 56.1846 81.6949 60.1615 83.8135 63.6307C84.0677 64.0538 84.1525 64.6461 84.4067 65.1538C82.7118 65.5769 81.1864 65.8307 79.7457 66.3384C76.9491 67.2692 74.1525 68.1153 71.5254 69.3846C69.322 70.4846 67.5423 72.1769 65.5084 73.5307C62.0338 75.9 59.661 79.1153 58.644 83.0923C57.2881 88.7615 56.5254 94.6 55.2542 100.269C54.7457 102.3 53.8982 104.5 52.6271 106.192C50.9321 108.477 48.644 110.338 46.8643 112.538C43.7288 116.431 39.9999 119.731 36.0169 122.692C33.5593 124.469 31.7796 126.838 29.8305 129.038C26.6101 132.761 24.5762 136.738 25.4237 141.9C26.1864 146.808 28.1355 150.785 32.966 152.731C34.4915 153.323 36.1864 153.492 37.7966 153.577C39.7457 153.661 41.6949 153.492 43.5593 153.154C43.5593 153.154 50.4237 152.562 63.983 146.892C66.9491 145.962 69.9999 145.115 72.966 144.185C75.9321 143.254 78.7288 141.985 81.8643 141.477C84.0677 141.138 84.7457 141.138 84.5762 143.761C84.322 147.231 83.983 150.785 83.983 154.254C83.983 159.246 84.322 164.238 84.5762 169.231C84.661 171.261 85.1694 173.208 85.4237 175.238C85.9321 178.2 86.4406 181.161 86.8643 184.208C87.0338 185.392 87.6271 186.831 87.2033 187.846C87.2033 187.846 148.559 205.531 164.068 143.508C160.508 142.238 156.695 142.069 153.305 139.954ZM80.3389 124.3C79.2372 127.769 77.6271 131.238 75.0847 133.946C72.6271 136.485 69.4067 138.261 65.8474 138.6C65.1694 138.685 64.5762 138.008 64.5762 137.331C64.5762 136.569 65.1694 136.146 65.8474 136.061C72.3728 135.554 76.1016 129.208 77.8813 123.708C78.3898 122.1 80.8474 122.692 80.3389 124.3ZM89.9152 101.454C87.2881 103.485 84.4067 104.161 81.5254 105.008C77.6271 106.023 73.644 106.785 69.7457 107.631C68.0508 107.969 66.6949 106.785 66.6101 104.585C66.5254 102.469 66.8643 100.354 67.0338 98.323C67.2033 95.3615 67.7118 92.4846 69.0677 89.8615C71.2711 85.7153 74.5762 82.8384 81.1016 82.5C82.5423 82.8384 85.4237 83.3461 88.0508 84.3615C90.3389 85.2076 92.1186 86.9 92.5423 89.523C92.6271 89.7769 92.7966 90.0307 92.966 90.2846C94.9152 93.8384 93.1355 98.9153 89.9152 101.454Z" fill="white"/>
<path d="M79.0679 92.4846C76.7797 92.4846 74.8306 94.3462 74.8306 96.7154C74.8306 97.3923 75.0001 98.0692 75.2543 98.5769C75.2543 98.6615 75.2543 98.7462 75.2543 98.7462C75.2543 99.4231 75.8475 100.015 76.5255 100.015C77.2034 100.015 77.7967 99.4231 77.7967 98.7462C77.7967 98.6615 77.7967 98.4923 77.7967 98.4077V98.3231V98.2385C77.7967 98.0692 77.8814 97.9 77.8814 97.8154C77.8814 97.7308 77.9662 97.6462 77.9662 97.6462L78.0509 97.4769L78.1356 97.3923H78.3051C78.4746 97.3923 78.6441 97.3077 78.8136 97.3077H78.9831C79.0678 97.3077 79.2373 97.3077 79.3221 97.3077C79.5763 97.3077 79.7458 97.3077 80.0001 97.3077L80.2543 97.3923H80.339L80.4238 97.4769L80.5085 97.3077C80.5085 97.3923 80.5933 97.4769 80.5933 97.4769C80.5933 97.5615 80.678 97.6462 80.678 97.7308V97.8154C80.678 98.0692 80.678 98.3231 80.678 98.5769C80.678 99.2538 81.2712 99.8462 81.9492 99.8462C82.6272 99.8462 83.2204 99.2538 83.2204 98.5769C83.2204 98.2385 83.2204 97.9 83.1356 97.5615C83.2204 97.3077 83.2204 96.9692 83.2204 96.6308C83.3051 94.3462 81.4407 92.4846 79.0679 92.4846Z" fill="white"/>
</g>
<defs>
<clipPath id="clip0_1102_1518">
<rect width="190" height="220" fill="white"/>
</clipPath>
</defs>
</svg>
