<svg width="61" height="70" viewBox="0 0 61 70" fill="none" xmlns="http://www.w3.org/2000/svg">
<g clip-path="url(#clip0_1106_441)">
<path d="M18.029 6.21923C22.5518 0.726928 28.145 -0.726918 34.996 0.296159C38.5821 0.83462 42.302 1.77693 44.9514 4.28077C47.4135 6.59616 48.591 9.96154 50.3573 12.8423C52.4983 16.3962 55.5759 19.3577 57.4759 23.0462C63.3903 34.5154 59.9113 52.4462 53.2208 62.7846C51.856 64.9115 50.1967 66.9577 48.029 68.25C43.3189 71.05 37.4046 69.8385 32.0255 68.7885C26.1111 67.6577 20.0897 66.7692 14.0683 66.4192C9.25115 66.15 5.18335 65.0462 2.64098 60.4154C0.526793 56.5923 0.312698 52.0154 0.63384 47.6538C1.67755 33.1962 8.31448 19.6 16.798 7.8077C17.1994 7.26923 17.6008 6.73077 18.029 6.21923Z" fill="#ECD400"/>
<path d="M48.9121 44.5308C49.8488 44.3423 50.6249 44.0192 51.2136 43.0769C50.8925 43.0231 50.6249 42.9154 50.3572 42.9154C49.7952 42.9423 49.2332 43.0769 48.6712 43.0769C48.4571 43.0769 48.1895 42.8885 48.0825 42.7269C48.0022 42.5923 48.029 42.2962 48.136 42.1616C48.4839 41.7308 48.8853 41.3808 49.2332 40.9769C49.3403 40.8423 49.4741 40.6269 49.4473 40.4923C49.3938 40.3577 49.153 40.2231 48.9924 40.1962C48.7515 40.1692 48.4839 40.25 48.243 40.3039C47.2261 40.4654 46.2092 40.6539 45.1922 40.8154C44.9513 40.8423 44.7105 40.7616 44.8978 40.4385C45.1119 40.0346 45.326 39.6039 45.5936 39.2269C46.1824 38.3923 46.5571 37.4769 46.7979 36.5077C46.8247 36.4 46.7712 36.2116 46.6909 36.1308C46.6106 36.0769 46.4232 36.0769 46.3162 36.1039C46.0753 36.2116 45.8613 36.4 45.6204 36.5346C45.1922 36.8308 44.8175 37.2885 44.095 37.0731C44.202 36.8039 44.2823 36.5616 44.3626 36.2923C44.5499 35.8346 44.8443 35.3769 44.9246 34.8923C45.0584 34.0846 45.1922 33.5731 44.4429 33.1423C43.8541 33.7077 43.5062 34.5692 42.5428 34.8654C42.5428 34.6769 42.516 34.5423 42.5695 34.4616C42.9174 33.6539 43.3189 32.8731 43.6133 32.0385C43.7203 31.7154 43.7471 31.1769 43.5597 30.9346C43.2654 30.5577 42.8639 30.9346 42.5695 31.15C42.516 31.2039 42.4625 31.2577 42.409 31.2846C42.1949 31.3923 41.9808 31.5 41.6596 31.6616C42.0343 30.1539 42.7569 28.9423 42.7836 27.4346C41.7667 27.8116 41.4991 28.8615 40.7497 29.5346C40.723 29.3462 40.6962 29.2116 40.723 29.1039C40.7765 28.3231 40.8568 27.5154 40.8835 26.7346C40.8835 26.4654 40.7497 26.1962 40.6427 25.7923C40.2145 26.3039 39.9201 26.6539 39.5187 27.1115C39.5187 26.8692 39.5187 26.7885 39.5187 26.7077C39.5722 26.1962 39.6525 25.6846 39.6525 25.1731C39.6525 25.0385 39.5455 24.8231 39.4384 24.7962C39.3581 24.7692 39.144 24.8769 39.0637 24.9846C38.7158 25.4154 38.475 25.4423 38.1271 25.0116C37.6454 24.4192 37.2439 23.7462 36.7087 23.2077C36.3073 22.8039 36.2805 22.4269 36.3876 21.9154C36.6284 20.6769 36.8158 19.4385 37.0031 18.2C37.1101 17.5269 37.1369 16.8269 37.2707 16.1269C37.5383 14.6462 37.6989 13.1923 37.4313 11.7116C37.2707 10.8769 36.4946 10.3923 35.772 10.6615C35.4509 10.7962 35.1298 11.0116 34.8621 11.2539C34.5678 11.5769 34.3001 11.9269 34.086 12.3308C33.4705 13.5962 32.8818 14.8885 32.293 16.1808C32.0254 16.7731 31.8381 17.4192 31.5704 18.2C31.2761 17.85 31.0352 17.6346 30.9549 17.3923C30.6338 16.5039 30.2859 15.6154 30.0985 14.7C29.7506 13.0039 29.5098 11.2808 29.2422 9.5577C29.1351 8.75001 29.1619 7.94232 29.0013 7.16155C28.8943 6.62309 28.6534 6.08463 28.359 5.60001C28.0646 5.14232 27.3956 5.1154 27.0477 5.54617C26.8336 5.8154 26.5927 6.11155 26.4857 6.4077C26.1913 7.4577 25.8969 8.5077 25.7631 9.58463C25.4152 11.9269 25.4687 14.2692 25.8702 16.6116C26.0843 17.8769 26.2984 19.1423 26.9674 20.2462C27.0477 20.3808 27.0744 20.5692 27.1547 20.7308C26.6195 20.8654 26.1378 20.9462 25.6828 21.1077C24.7997 21.4039 23.9166 21.6731 23.0869 22.0769C22.3911 22.4269 21.8291 22.9654 21.1869 23.3962C20.0896 24.15 19.3403 25.1731 19.0191 26.4385C18.591 28.2423 18.3501 30.1 17.9487 31.9039C17.7881 32.55 17.5205 33.25 17.1191 33.7885C16.5838 34.5154 15.8612 35.1077 15.2992 35.8077C14.3091 37.0462 13.1315 38.0962 11.8737 39.0385C11.0976 39.6039 10.5356 40.3577 9.92012 41.0577C8.90317 42.2423 8.26089 43.5077 8.52851 45.15C8.76936 46.7116 9.38489 47.9769 10.9103 48.5962C11.392 48.7846 11.9273 48.8385 12.4357 48.8654C13.0513 48.8923 13.6668 48.8385 14.2555 48.7308C14.2555 48.7308 16.4232 48.5423 20.7051 46.7385C21.6418 46.4423 22.6052 46.1731 23.5419 45.8769C24.4786 45.5808 25.3617 45.1769 26.3519 45.0154C27.0477 44.9077 27.2618 44.9077 27.2083 45.7423C27.128 46.8462 27.0209 47.9769 27.0209 49.0808C27.0209 50.6692 27.128 52.2577 27.2083 53.8462C27.235 54.4923 27.3956 55.1116 27.4759 55.7577C27.6364 56.7 27.797 57.6423 27.9308 58.6116C27.9844 58.9885 28.1717 59.4462 28.0379 59.7692C28.0379 59.7692 47.4134 65.3962 52.3108 45.6616C51.1869 45.2577 49.9826 45.2039 48.9121 44.5308ZM25.8702 39.55C25.5223 40.6539 25.0138 41.7577 24.2109 42.6192C23.4348 43.4269 22.4179 43.9923 21.2939 44.1C21.0798 44.1269 20.8925 43.9116 20.8925 43.6962C20.8925 43.4539 21.0798 43.3192 21.2939 43.2923C23.3546 43.1308 24.5321 41.1116 25.0941 39.3616C25.2546 38.85 26.0307 39.0385 25.8702 39.55ZM28.8943 32.2808C28.0646 32.9269 27.1547 33.1423 26.2448 33.4116C25.0138 33.7346 23.756 33.9769 22.5249 34.2462C21.9897 34.3539 21.5615 33.9769 21.5348 33.2769C21.508 32.6039 21.615 31.9308 21.6686 31.2846C21.7221 30.3423 21.8827 29.4269 22.3108 28.5923C23.0067 27.2731 24.0504 26.3577 26.111 26.25C26.566 26.3577 27.4759 26.5192 28.3055 26.8423C29.0281 27.1115 29.5901 27.65 29.7239 28.4846C29.7506 28.5654 29.8042 28.6462 29.8577 28.7269C30.4732 29.8577 29.9112 31.4731 28.8943 32.2808Z" fill="#202E55"/>
<path d="M25.4688 29.4269C24.7463 29.4269 24.1307 30.0192 24.1307 30.7731C24.1307 30.9884 24.1843 31.2038 24.2645 31.3654C24.2645 31.3923 24.2645 31.4192 24.2645 31.4192C24.2645 31.6346 24.4519 31.8231 24.666 31.8231C24.8801 31.8231 25.0674 31.6346 25.0674 31.4192C25.0674 31.3923 25.0674 31.3384 25.0674 31.3115V31.2846V31.2577C25.0674 31.2038 25.0942 31.15 25.0942 31.1231C25.0942 31.0961 25.1209 31.0692 25.1209 31.0692L25.1477 31.0154L25.1744 30.9884H25.228C25.2815 30.9884 25.335 30.9615 25.3885 30.9615H25.4421C25.4688 30.9615 25.5224 30.9615 25.5491 30.9615C25.6294 30.9615 25.6829 30.9615 25.7632 30.9615L25.8435 30.9884H25.8703L25.897 31.0154L25.9238 30.9615C25.9238 30.9884 25.9505 31.0154 25.9505 31.0154C25.9505 31.0423 25.9773 31.0692 25.9773 31.0961V31.1231C25.9773 31.2038 25.9773 31.2846 25.9773 31.3654C25.9773 31.5808 26.1646 31.7692 26.3787 31.7692C26.5928 31.7692 26.7802 31.5808 26.7802 31.3654C26.7802 31.2577 26.7802 31.15 26.7534 31.0423C26.7802 30.9615 26.7802 30.8538 26.7802 30.7461C26.8069 30.0192 26.2182 29.4269 25.4688 29.4269Z" fill="#202E55"/>
</g>
<defs>
<clipPath id="clip0_1106_441">
<rect width="60" height="70" fill="white" transform="translate(0.5)"/>
</clipPath>
</defs>
</svg>
